# xmcd
#
# Track frame offsets: 
#        150
#        33456
#        54929
#        78310
#        103754
#        127381
#        149244
#        179224
#        201184
#        225963
#        252490
#        274104
#        299395
#        316465
#
# Disc length: 4461 seconds
#
# Revision: 1
# Processed by: cddbd v1.5.2PL0 Copyright (c) Steve Scherf et al.
# Submitted via: ExactAudioCopy v0.95a5
#
DISCID=df116b0e
DTITLE=Till Brönner - Oceana (New Edition, and 2 neue Tracks)
DYEAR=2006
DGENRE=Jazz
TTITLE0=Bumpin'
TTITLE1=This Guy's In Love With You
TTITLE2=Love Theme From Chinatown
TTITLE3=In My Secret Life (feat. Carla Bruni)
TTITLE4=The Peacocks
TTITLE5=I'm So Lonesome I Could Cry (feat. M. Peyroux)
TTITLE6=Subrosa
TTITLE7=Pra dizer adeus (feat. Luciana Souza)
TTITLE8=It Never Entered My Mind
TTITLE9=River Man
TTITLE10=Danny Boy
TTITLE11=A Distant Episode
TTITLE12=Ill Never Fall In Love Again
TTITLE13=Tarde
EXTD=
EXTT0=
EXTT1=
EXTT2=
EXTT3=
EXTT4=
EXTT5=
EXTT6=
EXTT7=
EXTT8=
EXTT9=
EXTT10=
EXTT11=
EXTT12=
EXTT13=
PLAYORDER=
